<svg width="366" height="230" viewBox="0 0 366 230" fill="none" xmlns="http://www.w3.org/2000/svg">
<path d="M89.3852 3.32H92.1532V15H89.3852V10.376H82.9372V15H80.1692V3.32H82.9372V7.944H89.3852V3.32ZM107.571 15H104.659L103.651 12.6H98.5632L97.5712 15H94.6752L99.6672 3.32H102.531L107.571 15ZM101.091 6.392L99.4432 10.408H102.771L101.091 6.392ZM118.624 9.16C118.955 9.224 119.291 9.32 119.632 9.448C119.974 9.576 120.283 9.752 120.56 9.976C120.848 10.2 121.083 10.472 121.264 10.792C121.446 11.1013 121.536 11.4747 121.536 11.912C121.536 12.328 121.446 12.728 121.264 13.112C121.083 13.4853 120.8 13.8107 120.416 14.088C120.032 14.3653 119.536 14.5893 118.928 14.76C118.331 14.92 117.616 15 116.784 15H110.08V3.32H116.784C117.531 3.32 118.182 3.4 118.736 3.56C119.291 3.72 119.75 3.944 120.112 4.232C120.475 4.50933 120.742 4.83467 120.912 5.208C121.094 5.58133 121.184 5.98133 121.184 6.408C121.184 6.824 121.11 7.192 120.96 7.512C120.811 7.82133 120.614 8.088 120.368 8.312C120.123 8.52533 119.846 8.70133 119.536 8.84C119.238 8.968 118.934 9.064 118.624 9.128V9.16ZM112.752 5.624V8.152H116.8C117.376 8.152 117.792 8.03467 118.048 7.8C118.315 7.56533 118.448 7.256 118.448 6.872C118.448 6.49867 118.315 6.2 118.048 5.976C117.782 5.74133 117.339 5.624 116.72 5.624H112.752ZM116.72 12.696C117.115 12.696 117.446 12.6693 117.712 12.616C117.979 12.552 118.192 12.4667 118.352 12.36C118.512 12.2427 118.624 12.1093 118.688 11.96C118.763 11.8 118.8 11.624 118.8 11.432C118.8 11.0587 118.651 10.7547 118.352 10.52C118.054 10.2853 117.536 10.168 116.8 10.168H112.752V12.696H116.72ZM133.976 3.32H136.584V15H133.864V7.208L127.144 15H124.536V3.32H127.256V11.112L133.976 3.32ZM147.937 3.32H150.721V15H147.937V10.312C147.478 10.4187 146.966 10.5093 146.401 10.584C145.846 10.648 145.185 10.68 144.417 10.68C142.742 10.68 141.531 10.328 140.785 9.624C140.038 8.90933 139.665 7.82133 139.665 6.36V3.32H142.449V6.168C142.449 6.552 142.486 6.87733 142.561 7.144C142.646 7.4 142.779 7.61333 142.961 7.784C143.142 7.944 143.387 8.06133 143.697 8.136C144.017 8.21067 144.406 8.248 144.865 8.248C145.451 8.248 145.995 8.216 146.497 8.152C147.009 8.07733 147.489 7.98667 147.937 7.88V3.32ZM163.328 15L159.488 9.576L157.168 11.912V15H154.432V3.32H157.168V8.76L162.624 3.32H166.432L161.68 8.008L166.736 15H163.328ZM178.718 3.32H181.326V15H178.606V7.208L171.886 15H169.278V3.32H171.998V11.112L178.718 3.32ZM194.973 15H192.205V3.32H194.973V15ZM208.138 10.728C208.181 11.048 208.266 11.3413 208.394 11.608C208.533 11.864 208.735 12.088 209.002 12.28C209.279 12.4613 209.637 12.6053 210.074 12.712C210.511 12.808 211.055 12.856 211.706 12.856C212.346 12.856 212.874 12.8187 213.29 12.744C213.706 12.6587 214.037 12.552 214.282 12.424C214.527 12.296 214.698 12.152 214.794 11.992C214.89 11.8213 214.938 11.6507 214.938 11.48C214.938 11.288 214.901 11.1173 214.826 10.968C214.751 10.8187 214.602 10.696 214.378 10.6C214.165 10.4933 213.855 10.4133 213.45 10.36C213.055 10.296 212.533 10.264 211.882 10.264H209.818V8.056H211.882C212.437 8.056 212.885 8.02933 213.226 7.976C213.578 7.912 213.85 7.832 214.042 7.736C214.234 7.62933 214.362 7.50133 214.426 7.352C214.501 7.20267 214.538 7.03733 214.538 6.856C214.538 6.67467 214.49 6.504 214.394 6.344C214.298 6.17333 214.138 6.024 213.914 5.896C213.69 5.768 213.391 5.66667 213.018 5.592C212.645 5.50667 212.175 5.464 211.61 5.464C211.013 5.464 210.506 5.51733 210.09 5.624C209.685 5.72 209.349 5.85867 209.082 6.04C208.826 6.22133 208.629 6.44533 208.49 6.712C208.362 6.97867 208.277 7.272 208.234 7.592H205.37C205.423 6.94133 205.573 6.344 205.818 5.8C206.074 5.24533 206.453 4.77067 206.954 4.376C207.455 3.97067 208.09 3.656 208.858 3.432C209.626 3.208 210.554 3.096 211.642 3.096C212.655 3.096 213.519 3.192 214.234 3.384C214.959 3.576 215.551 3.832 216.01 4.152C216.469 4.46133 216.805 4.81867 217.018 5.224C217.242 5.61867 217.354 6.024 217.354 6.44C217.354 6.856 217.274 7.21867 217.114 7.528C216.954 7.83733 216.746 8.104 216.49 8.328C216.234 8.54133 215.941 8.712 215.61 8.84C215.29 8.968 214.965 9.05867 214.634 9.112V9.144C214.986 9.19733 215.343 9.288 215.706 9.416C216.079 9.53333 216.415 9.704 216.714 9.928C217.023 10.1413 217.274 10.4133 217.466 10.744C217.658 11.064 217.754 11.4533 217.754 11.912C217.754 12.3387 217.647 12.7493 217.434 13.144C217.221 13.5387 216.874 13.8907 216.394 14.2C215.914 14.5093 215.29 14.76 214.522 14.952C213.754 15.1333 212.815 15.224 211.706 15.224C210.586 15.224 209.631 15.1173 208.842 14.904C208.053 14.68 207.402 14.3707 206.89 13.976C206.378 13.5813 205.994 13.1067 205.738 12.552C205.482 11.9973 205.327 11.3893 205.274 10.728H208.138ZM229.975 3.32H232.743V15H229.975V10.376H223.527V15H220.759V3.32H223.527V7.944H229.975V3.32ZM248.161 15H245.249L244.241 12.6H239.153L238.161 15H235.265L240.257 3.32H243.121L248.161 15ZM241.681 6.392L240.033 10.408H243.361L241.681 6.392ZM259.886 3.32H262.654V15H259.886V10.376H253.438V15H250.67V3.32H253.438V7.944H259.886V3.32ZM275.576 3.32H278.344V15H275.576V10.376H269.128V15H266.36V3.32H269.128V7.944H275.576V3.32ZM284.562 15H281.17L284.642 10.472C283.661 10.2587 282.936 9.85333 282.466 9.256C282.008 8.648 281.778 7.90667 281.778 7.032C281.778 5.88 282.146 4.97333 282.882 4.312C283.618 3.65067 284.786 3.32 286.386 3.32H292.978V15H290.242V10.68H287.73L284.562 15ZM290.242 5.688H286.45C285.746 5.688 285.25 5.80533 284.962 6.04C284.685 6.27467 284.546 6.61067 284.546 7.048C284.546 7.47467 284.685 7.80533 284.962 8.04C285.25 8.27467 285.746 8.392 286.45 8.392H290.242V5.688Z" fill="#191A21"/>
<path d="M198.605 192.416H130.458H63.9931C60.7552 192.416 58.1305 189.791 58.1305 186.553V174.2C58.1305 170.962 60.7552 168.337 63.9931 168.337H138.601C141.839 168.337 144.464 165.712 144.464 162.474V136.093C144.464 132.855 141.839 130.23 138.601 130.23H96.1852C92.9473 130.23 90.3225 127.605 90.3225 124.367V101.754C90.3225 98.5167 87.6978 95.8919 84.4599 95.8919H62.7388C59.501 95.8919 56.8762 93.2671 56.8762 90.0293V57.7849V40.5819C56.8762 37.3574 59.4803 34.7381 62.7048 34.7194L266.917 33.5348C270.168 33.516 272.814 36.1462 272.814 39.3973V73.9105C272.814 77.1484 275.439 79.7732 278.677 79.7731L344.714 79.77C347.952 79.7698 350.577 82.3946 350.577 85.6326V108.629C350.577 111.881 347.931 114.511 344.68 114.492L320.937 114.352C317.686 114.333 315.04 116.963 315.04 120.214V131.324C315.04 134.544 317.636 137.161 320.855 137.187L334.937 137.302C338.156 137.328 340.752 139.945 340.752 143.164V170.012C340.752 173.25 338.127 175.875 334.889 175.875H218.891C215.654 175.875 213.029 178.499 213.029 181.737V186.553C213.029 189.791 210.404 192.416 207.166 192.416H198.605ZM198.605 192.416V201.628" stroke="#A19394" stroke-width="0.418758"/>
<ellipse cx="56.8758" cy="47.5253" rx="2.92655" ry="2.9313" fill="#F42B39"/>
<rect x="49.3506" y="46.2689" width="15.0508" height="2.51255" fill="#F42B39"/>
<rect x="58.1299" y="39.9877" width="15.0753" height="2.50847" transform="rotate(90 58.1299 39.9877)" fill="#F42B39"/>
<path d="M0.97 70V63H2.2V70H0.97ZM8.22383 70.12C7.2105 70.12 6.36383 69.7733 5.68383 69.08C5.00383 68.38 4.66383 67.52 4.66383 66.5C4.66383 65.4867 5.00383 64.63 5.68383 63.93C6.36383 63.23 7.22716 62.88 8.27383 62.88C8.8805 62.88 9.39383 62.9733 9.81383 63.16C10.2405 63.3467 10.6405 63.6167 11.0138 63.97L10.2238 64.88C9.59716 64.3 8.94383 64.01 8.26383 64.01C7.59716 64.01 7.04383 64.25 6.60383 64.73C6.1705 65.21 5.95383 65.8 5.95383 66.5C5.95383 67.1933 6.17383 67.7833 6.61383 68.27C7.05383 68.75 7.60383 68.99 8.26383 68.99C8.66383 68.99 9.01716 68.9167 9.32383 68.77C9.6305 68.6167 9.94716 68.3867 10.2738 68.08L11.0638 68.88C10.6705 69.2933 10.2538 69.6033 9.81383 69.81C9.37383 70.0167 8.84383 70.12 8.22383 70.12ZM14.9766 70V64.14H12.7566V63H18.4366V64.14H16.2166V70H14.9766ZM26.611 69.06C25.9177 69.7667 25.041 70.12 23.981 70.12C22.921 70.12 22.0477 69.77 21.361 69.07C20.6743 68.37 20.331 67.5133 20.331 66.5C20.331 65.5 20.6777 64.6467 21.371 63.94C22.0643 63.2333 22.941 62.88 24.001 62.88C25.061 62.88 25.9344 63.23 26.621 63.93C27.3077 64.63 27.651 65.4867 27.651 66.5C27.651 67.5 27.3043 68.3533 26.611 69.06ZM22.291 68.27C22.7443 68.75 23.3143 68.99 24.001 68.99C24.6877 68.99 25.251 68.75 25.691 68.27C26.1377 67.79 26.361 67.2 26.361 66.5C26.361 65.8067 26.1344 65.22 25.681 64.74C25.2343 64.2533 24.6677 64.01 23.981 64.01C23.2943 64.01 22.7277 64.25 22.281 64.73C21.841 65.21 21.621 65.8 21.621 66.5C21.621 67.1933 21.8443 67.7833 22.291 68.27ZM30.0371 70V63H32.7971C33.6104 63 34.2571 63.2133 34.7371 63.64C35.2171 64.0667 35.4571 64.64 35.4571 65.36C35.4571 66.1133 35.1904 66.7 34.6571 67.12C34.1304 67.54 33.4638 67.75 32.6571 67.75H31.2671V70H30.0371ZM31.2671 66.64H32.6971C33.1571 66.64 33.5238 66.5233 33.7971 66.29C34.0704 66.0567 34.2071 65.75 34.2071 65.37C34.2071 64.97 34.0704 64.6633 33.7971 64.45C33.5304 64.23 33.1638 64.12 32.6971 64.12H31.2671V66.64ZM37.6168 70V63H38.8268V68.11L42.3668 63H43.5168V70H42.3068V64.9L38.7768 70H37.6168ZM50.3416 70V67.23C49.5883 67.6233 48.925 67.82 48.3516 67.82C47.645 67.82 47.0816 67.6333 46.6616 67.26C46.2483 66.88 46.0416 66.3233 46.0416 65.59V63H47.2716V65.28C47.2716 65.7267 47.3816 66.0733 47.6016 66.32C47.8216 66.56 48.145 66.68 48.5716 66.68C49.205 66.68 49.795 66.4967 50.3416 66.13V63H51.5716V70H50.3416ZM54.2703 70V63H55.5003V65.91H58.8403V63H60.0703V70H58.8403V67.05H55.5003V70H54.2703ZM63.978 70.11C63.498 70.11 63.0413 69.9933 62.608 69.76L63.078 68.84C63.338 68.9867 63.6246 69.06 63.938 69.06C64.358 69.06 64.7246 68.8067 65.038 68.3L62.118 63H63.498L65.678 67.07L67.598 63H68.928L66.198 68.47C65.658 69.5633 64.918 70.11 63.978 70.11ZM74.8902 70V63H80.6002V70H79.3702V64.11H76.1202V70H74.8902ZM83.3 70V63H88.49V64.1H84.53V65.92H88.04V67.02H84.53V68.9H88.54V70H83.3ZM90.8992 70V63H93.6592C94.4726 63 95.1192 63.2133 95.5992 63.64C96.0792 64.0667 96.3192 64.64 96.3192 65.36C96.3192 66.1133 96.0526 66.7 95.5192 67.12C94.9926 67.54 94.3259 67.75 93.5192 67.75H92.1292V70H90.8992ZM92.1292 66.64H93.5592C94.0192 66.64 94.3859 66.5233 94.6592 66.29C94.9326 66.0567 95.0692 65.75 95.0692 65.37C95.0692 64.97 94.9326 64.6633 94.6592 64.45C94.3926 64.23 94.0259 64.12 93.5592 64.12H92.1292V66.64ZM101.729 70.12C100.716 70.12 99.8689 69.7733 99.1889 69.08C98.5089 68.38 98.1689 67.52 98.1689 66.5C98.1689 65.4867 98.5089 64.63 99.1889 63.93C99.8689 63.23 100.732 62.88 101.779 62.88C102.386 62.88 102.899 62.9733 103.319 63.16C103.746 63.3467 104.146 63.6167 104.519 63.97L103.729 64.88C103.102 64.3 102.449 64.01 101.769 64.01C101.102 64.01 100.549 64.25 100.109 64.73C99.6756 65.21 99.4589 65.8 99.4589 66.5C99.4589 67.1933 99.6789 67.7833 100.119 68.27C100.559 68.75 101.109 68.99 101.769 68.99C102.169 68.99 102.522 68.9167 102.829 68.77C103.136 68.6167 103.452 68.3867 103.779 68.08L104.569 68.88C104.176 69.2933 103.759 69.6033 103.319 69.81C102.879 70.0167 102.349 70.12 101.729 70.12ZM106.762 70V63H112.472V70H111.242V64.11H107.992V70H106.762ZM115.171 70V63H120.361V64.1H116.401V65.92H119.911V67.02H116.401V68.9H120.411V70H115.171ZM122.771 70V63H124.001V66.52L127.331 63H128.841L125.931 66.01L128.971 70H127.481L125.091 66.85L124.001 67.97V70H122.771ZM132.637 70V64.14H130.417V63H136.097V64.14H133.877V70H132.637ZM138.301 70V63H139.511V68.11L143.051 63H144.201V70H142.991V64.9L139.461 70H138.301ZM146.916 70V63H150.056C150.863 63 151.473 63.2067 151.886 63.62C152.199 63.9333 152.356 64.3267 152.356 64.8C152.356 65.4933 152.023 66.0133 151.356 66.36C152.283 66.6733 152.746 67.2467 152.746 68.08C152.746 68.6933 152.513 69.1667 152.046 69.5C151.579 69.8333 150.949 70 150.156 70H146.916ZM148.126 65.95H149.806C150.213 65.95 150.533 65.87 150.766 65.71C151.006 65.5433 151.126 65.3 151.126 64.98C151.126 64.7 151.019 64.4833 150.806 64.33C150.593 64.17 150.289 64.09 149.896 64.09H148.126V65.95ZM148.126 68.91H150.166C150.593 68.91 150.923 68.8267 151.156 68.66C151.396 68.4933 151.516 68.25 151.516 67.93C151.516 67.3033 151.036 66.99 150.076 66.99H148.126V68.91ZM156.243 70.11C155.763 70.11 155.306 69.9933 154.873 69.76L155.343 68.84C155.603 68.9867 155.889 69.06 156.203 69.06C156.623 69.06 156.989 68.8067 157.303 68.3L154.383 63H155.763L157.943 67.07L159.863 63H161.193L158.463 68.47C157.923 69.5633 157.183 70.11 156.243 70.11ZM0.9 80V73H3.66C4.47333 73 5.12 73.2133 5.6 73.64C6.08 74.0667 6.32 74.64 6.32 75.36C6.32 76.1133 6.05333 76.7 5.52 77.12C4.99333 77.54 4.32667 77.75 3.52 77.75H2.13V80H0.9ZM2.13 76.64H3.56C4.02 76.64 4.38667 76.5233 4.66 76.29C4.93333 76.0567 5.07 75.75 5.07 75.37C5.07 74.97 4.93333 74.6633 4.66 74.45C4.39333 74.23 4.02667 74.12 3.56 74.12H2.13V76.64ZM14.4497 79.06C13.7564 79.7667 12.8797 80.12 11.8197 80.12C10.7597 80.12 9.88635 79.77 9.19969 79.07C8.51302 78.37 8.16969 77.5133 8.16969 76.5C8.16969 75.5 8.51635 74.6467 9.20969 73.94C9.90302 73.2333 10.7797 72.88 11.8397 72.88C12.8997 72.88 13.773 73.23 14.4597 73.93C15.1464 74.63 15.4897 75.4867 15.4897 76.5C15.4897 77.5 15.143 78.3533 14.4497 79.06ZM10.1297 78.27C10.583 78.75 11.153 78.99 11.8397 78.99C12.5264 78.99 13.0897 78.75 13.5297 78.27C13.9764 77.79 14.1997 77.2 14.1997 76.5C14.1997 75.8067 13.973 75.22 13.5197 74.74C13.073 74.2533 12.5064 74.01 11.8197 74.01C11.133 74.01 10.5664 74.25 10.1197 74.73C9.67969 75.21 9.45969 75.8 9.45969 76.5C9.45969 77.1933 9.68302 77.7833 10.1297 78.27ZM20.2558 72.88C20.9758 72.88 21.5658 73.0567 22.0258 73.41C22.4858 73.7633 22.7158 74.2133 22.7158 74.76C22.7158 75.5133 22.3191 76.0567 21.5258 76.39C21.9458 76.5167 22.2791 76.72 22.5258 77C22.7724 77.28 22.8958 77.6367 22.8958 78.07C22.8958 78.6633 22.6591 79.1533 22.1858 79.54C21.7124 79.9267 21.0924 80.12 20.3258 80.12C19.6658 80.12 19.0958 80.0267 18.6158 79.84C18.1424 79.6467 17.7024 79.3567 17.2958 78.97L17.9658 78.12C18.6191 78.74 19.3958 79.05 20.2958 79.05C20.6824 79.05 21.0058 78.9567 21.2658 78.77C21.5324 78.5767 21.6658 78.32 21.6658 78C21.6658 77.6533 21.5191 77.3967 21.2258 77.23C20.9324 77.0633 20.5458 76.98 20.0658 76.98H19.2758V75.96H20.0558C20.5091 75.96 20.8624 75.8733 21.1158 75.7C21.3691 75.52 21.4958 75.2667 21.4958 74.94C21.4958 74.6467 21.3724 74.41 21.1258 74.23C20.8858 74.05 20.5691 73.96 20.1758 73.96C19.4091 73.96 18.7558 74.22 18.2158 74.74L17.5558 73.94C18.2958 73.2333 19.1958 72.88 20.2558 72.88ZM25.2406 80V73H28.3806C29.1873 73 29.7973 73.2067 30.2106 73.62C30.524 73.9333 30.6806 74.3267 30.6806 74.8C30.6806 75.4933 30.3473 76.0133 29.6806 76.36C30.6073 76.6733 31.0706 77.2467 31.0706 78.08C31.0706 78.6933 30.8373 79.1667 30.3706 79.5C29.904 79.8333 29.274 80 28.4806 80H25.2406ZM26.4506 75.95H28.1306C28.5373 75.95 28.8573 75.87 29.0906 75.71C29.3306 75.5433 29.4506 75.3 29.4506 74.98C29.4506 74.7 29.344 74.4833 29.1306 74.33C28.9173 74.17 28.614 74.09 28.2206 74.09H26.4506V75.95ZM26.4506 78.91H28.4906C28.9173 78.91 29.2473 78.8267 29.4806 78.66C29.7206 78.4933 29.8406 78.25 29.8406 77.93C29.8406 77.3033 29.3606 76.99 28.4006 76.99H26.4506V78.91ZM33.3574 80V73H34.5674V78.11L38.1074 73H39.2574V80H38.0474V74.9L34.5174 80H33.3574ZM43.6923 80V74.14H41.4723V73H47.1523V74.14H44.9323V80H43.6923ZM49.3566 80V73H50.5866V76.52L53.9166 73H55.4266L52.5166 76.01L55.5566 80H54.0666L51.6766 76.85L50.5866 77.97V80H49.3566ZM58.7127 80.11C58.2327 80.11 57.7761 79.9933 57.3427 79.76L57.8127 78.84C58.0727 78.9867 58.3594 79.06 58.6727 79.06C59.0927 79.06 59.4594 78.8067 59.7727 78.3L56.8527 73H58.2327L60.4127 77.07L62.3327 73H63.6627L60.9327 78.47C60.3927 79.5633 59.6527 80.11 58.7127 80.11ZM69.625 80V73H75.335V80H74.105V74.11H70.855V80H69.625ZM84.0048 79.06C83.3114 79.7667 82.4348 80.12 81.3748 80.12C80.3148 80.12 79.4414 79.77 78.7548 79.07C78.0681 78.37 77.7248 77.5133 77.7248 76.5C77.7248 75.5 78.0714 74.6467 78.7648 73.94C79.4581 73.2333 80.3348 72.88 81.3948 72.88C82.4548 72.88 83.3281 73.23 84.0148 73.93C84.7014 74.63 85.0448 75.4867 85.0448 76.5C85.0448 77.5 84.6981 78.3533 84.0048 79.06ZM79.6848 78.27C80.1381 78.75 80.7081 78.99 81.3948 78.99C82.0814 78.99 82.6448 78.75 83.0848 78.27C83.5314 77.79 83.7548 77.2 83.7548 76.5C83.7548 75.8067 83.5281 75.22 83.0748 74.74C82.6281 74.2533 82.0614 74.01 81.3748 74.01C80.6881 74.01 80.1214 74.25 79.6748 74.73C79.2348 75.21 79.0148 75.8 79.0148 76.5C79.0148 77.1933 79.2381 77.7833 79.6848 78.27ZM87.4309 80.08C87.1442 80.08 86.8609 80.0433 86.5809 79.97L86.7009 78.96C86.8209 79 86.9542 79.02 87.1009 79.02C87.2609 79.02 87.3975 78.9967 87.5109 78.95C87.6309 78.8967 87.7542 78.7767 87.8809 78.59C88.0142 78.4033 88.1175 78.15 88.1909 77.83C88.2709 77.5033 88.3375 77.05 88.3909 76.47C88.4442 75.89 88.4709 75.1933 88.4709 74.38V73H93.2709V80H92.0409V74.11H89.6209V74.74C89.6209 75.8267 89.5742 76.73 89.4809 77.45C89.3875 78.1633 89.2409 78.71 89.0409 79.09C88.8409 79.4633 88.6142 79.7233 88.3609 79.87C88.1142 80.01 87.8042 80.08 87.4309 80.08ZM96.0473 80V73H97.2773V80H96.0473ZM101.771 80V74.14H99.5512V73H105.231V74.14H103.011V80H101.771ZM107.436 80V73H108.646V78.11L112.186 73H113.336V80H112.126V74.9L108.596 80H107.436ZM120.16 80V77.23C119.407 77.6233 118.744 77.82 118.17 77.82C117.464 77.82 116.9 77.6333 116.48 77.26C116.067 76.88 115.86 76.3233 115.86 75.59V73H117.09V75.28C117.09 75.7267 117.2 76.0733 117.42 76.32C117.64 76.56 117.964 76.68 118.39 76.68C119.024 76.68 119.614 76.4967 120.16 76.13V73H121.39V80H120.16ZM124.089 80V73H125.319V75.91H128.659V73H129.889V80H128.659V77.05H125.319V80H124.089ZM132.587 80V73H133.797V78.11L137.337 73H138.487V80H137.277V74.9L133.747 80H132.587ZM140.672 80L143.222 76.44L140.772 73H142.222L143.962 75.51L145.712 73H147.122L144.682 76.42L147.222 80H145.772L143.932 77.35L142.082 80H140.672ZM2.62 90V84.14H0.4V83H6.08V84.14H3.86V90H2.62ZM8.28438 90V83H13.4744V84.1H9.51438V85.92H13.0244V87.02H9.51438V88.9H13.5244V90H8.28438ZM21.8536 89.06C21.1603 89.7667 20.2836 90.12 19.2236 90.12C18.1636 90.12 17.2903 89.77 16.6036 89.07C15.9169 88.37 15.5736 87.5133 15.5736 86.5C15.5736 85.5 15.9203 84.6467 16.6136 83.94C17.3069 83.2333 18.1836 82.88 19.2436 82.88C20.3036 82.88 21.1769 83.23 21.8636 83.93C22.5503 84.63 22.8936 85.4867 22.8936 86.5C22.8936 87.5 22.5469 88.3533 21.8536 89.06ZM17.5336 88.27C17.9869 88.75 18.5569 88.99 19.2436 88.99C19.9303 88.99 20.4936 88.75 20.9336 88.27C21.3803 87.79 21.6036 87.2 21.6036 86.5C21.6036 85.8067 21.3769 85.22 20.9236 84.74C20.4769 84.2533 19.9103 84.01 19.2236 84.01C18.5369 84.01 17.9703 84.25 17.5236 84.73C17.0836 85.21 16.8636 85.8 16.8636 86.5C16.8636 87.1933 17.0869 87.7833 17.5336 88.27ZM25.2797 90V83H28.0397C28.853 83 29.4997 83.2133 29.9797 83.64C30.4597 84.0667 30.6997 84.64 30.6997 85.36C30.6997 86.1133 30.433 86.7 29.8997 87.12C29.373 87.54 28.7064 87.75 27.8997 87.75H26.5097V90H25.2797ZM26.5097 86.64H27.9397C28.3997 86.64 28.7664 86.5233 29.0397 86.29C29.313 86.0567 29.4497 85.75 29.4497 85.37C29.4497 84.97 29.313 84.6633 29.0397 84.45C28.773 84.23 28.4064 84.12 27.9397 84.12H26.5097V86.64ZM32.9294 90V83H34.1594V90H32.9294ZM40.9732 82.08C40.6932 82.3267 40.3432 82.45 39.9232 82.45C39.5032 82.45 39.1532 82.3267 38.8732 82.08C38.5932 81.8267 38.4165 81.4833 38.3432 81.05L39.0932 80.91C39.2199 81.3633 39.4965 81.59 39.9232 81.59C40.3365 81.59 40.6132 81.3633 40.7532 80.91L41.4932 81.05C41.4265 81.4833 41.2532 81.8267 40.9732 82.08ZM36.9332 90V83H38.1432V88.11L41.6832 83H42.8332V90H41.6232V84.9L38.0932 90H36.9332Z" fill="#191A21"/>
<ellipse cx="273.441" cy="69.7195" rx="2.92655" ry="2.9313" fill="#F42B39"/>
<rect x="265.916" y="68.4634" width="15.0508" height="2.51255" fill="#F42B39"/>
<rect x="274.695" y="62.1819" width="15.0753" height="2.50847" transform="rotate(90 274.695 62.1819)" fill="#F42B39"/>
<path d="M227.9 92V85H233.61V92H232.38V86.11H229.13V92H227.9ZM242.28 91.06C241.586 91.7667 240.71 92.12 239.65 92.12C238.59 92.12 237.716 91.77 237.03 91.07C236.343 90.37 236 89.5133 236 88.5C236 87.5 236.346 86.6467 237.04 85.94C237.733 85.2333 238.61 84.88 239.67 84.88C240.73 84.88 241.603 85.23 242.29 85.93C242.976 86.63 243.32 87.4867 243.32 88.5C243.32 89.5 242.973 90.3533 242.28 91.06ZM237.96 90.27C238.413 90.75 238.983 90.99 239.67 90.99C240.356 90.99 240.92 90.75 241.36 90.27C241.806 89.79 242.03 89.2 242.03 88.5C242.03 87.8067 241.803 87.22 241.35 86.74C240.903 86.2533 240.336 86.01 239.65 86.01C238.963 86.01 238.396 86.25 237.95 86.73C237.51 87.21 237.29 87.8 237.29 88.5C237.29 89.1933 237.513 89.7833 237.96 90.27ZM245.706 92.08C245.419 92.08 245.136 92.0433 244.856 91.97L244.976 90.96C245.096 91 245.229 91.02 245.376 91.02C245.536 91.02 245.673 90.9967 245.786 90.95C245.906 90.8967 246.029 90.7767 246.156 90.59C246.289 90.4033 246.393 90.15 246.466 89.83C246.546 89.5033 246.613 89.05 246.666 88.47C246.719 87.89 246.746 87.1933 246.746 86.38V85H251.546V92H250.316V86.11H247.896V86.74C247.896 87.8267 247.849 88.73 247.756 89.45C247.663 90.1633 247.516 90.71 247.316 91.09C247.116 91.4633 246.889 91.7233 246.636 91.87C246.389 92.01 246.079 92.08 245.706 92.08ZM254.322 92V85H255.552V92H254.322ZM260.046 92V86.14H257.826V85H263.506V86.14H261.286V92H260.046ZM265.711 92V85H266.921V90.11L270.461 85H271.611V92H270.401V86.9L266.871 92H265.711ZM278.435 92V89.23C277.682 89.6233 277.019 89.82 276.445 89.82C275.739 89.82 275.175 89.6333 274.755 89.26C274.342 88.88 274.135 88.3233 274.135 87.59V85H275.365V87.28C275.365 87.7267 275.475 88.0733 275.695 88.32C275.915 88.56 276.239 88.68 276.665 88.68C277.299 88.68 277.889 88.4967 278.435 88.13V85H279.665V92H278.435ZM282.364 92V85H283.594V87.91H286.934V85H288.164V92H286.934V89.05H283.594V92H282.364ZM290.932 92V85H292.162V92H290.932ZM298.834 92V85H304.544V92H303.314V86.11H300.064V92H298.834ZM307.243 92V85H310.003C310.817 85 311.463 85.2133 311.943 85.64C312.423 86.0667 312.663 86.64 312.663 87.36C312.663 88.1133 312.397 88.7 311.863 89.12C311.337 89.54 310.67 89.75 309.863 89.75H308.473V92H307.243ZM308.473 88.64H309.903C310.363 88.64 310.73 88.5233 311.003 88.29C311.277 88.0567 311.413 87.75 311.413 87.37C311.413 86.97 311.277 86.6633 311.003 86.45C310.737 86.23 310.37 86.12 309.903 86.12H308.473V88.64ZM320.793 91.06C320.1 91.7667 319.223 92.12 318.163 92.12C317.103 92.12 316.23 91.77 315.543 91.07C314.856 90.37 314.513 89.5133 314.513 88.5C314.513 87.5 314.86 86.6467 315.553 85.94C316.246 85.2333 317.123 84.88 318.183 84.88C319.243 84.88 320.116 85.23 320.803 85.93C321.49 86.63 321.833 87.4867 321.833 88.5C321.833 89.5 321.486 90.3533 320.793 91.06ZM316.473 90.27C316.926 90.75 317.496 90.99 318.183 90.99C318.87 90.99 319.433 90.75 319.873 90.27C320.32 89.79 320.543 89.2 320.543 88.5C320.543 87.8067 320.316 87.22 319.863 86.74C319.416 86.2533 318.85 86.01 318.163 86.01C317.476 86.01 316.91 86.25 316.463 86.73C316.023 87.21 315.803 87.8 315.803 88.5C315.803 89.1933 316.026 89.7833 316.473 90.27ZM329.629 93.5V92H324.219V85H325.449V90.89H328.729V85H329.949V90.89H330.819L330.649 93.5H329.629ZM332.814 92V85H338.004V86.1H334.044V87.92H337.554V89.02H334.044V90.9H338.054V92H332.814ZM343.664 92.12C342.65 92.12 341.804 91.7733 341.124 91.08C340.444 90.38 340.104 89.52 340.104 88.5C340.104 87.4867 340.444 86.63 341.124 85.93C341.804 85.23 342.667 84.88 343.714 84.88C344.32 84.88 344.834 84.9733 345.254 85.16C345.68 85.3467 346.08 85.6167 346.454 85.97L345.664 86.88C345.037 86.3 344.384 86.01 343.704 86.01C343.037 86.01 342.484 86.25 342.044 86.73C341.61 87.21 341.394 87.8 341.394 88.5C341.394 89.1933 341.614 89.7833 342.054 90.27C342.494 90.75 343.044 90.99 343.704 90.99C344.104 90.99 344.457 90.9167 344.764 90.77C345.07 90.6167 345.387 90.3867 345.714 90.08L346.504 90.88C346.11 91.2933 345.694 91.6033 345.254 91.81C344.814 92.0167 344.284 92.12 343.664 92.12ZM348.696 92V85H349.906V90.11L353.446 85H354.596V92H353.386V86.9L349.856 92H348.696ZM229.62 102V96.14H227.4V95H233.08V96.14H230.86V102H229.62ZM234.684 102L237.764 94.95H238.904L241.984 102H240.684L239.974 100.31H236.664L235.944 102H234.684ZM237.114 99.22H239.524L238.314 96.42L237.114 99.22ZM248.053 102V95H249.283V102H248.053ZM252.057 102V95H253.287V97.91H256.627V95H257.857V102H256.627V99.05H253.287V102H252.057ZM263.804 102.12C262.791 102.12 261.944 101.773 261.264 101.08C260.584 100.38 260.244 99.52 260.244 98.5C260.244 97.4867 260.584 96.63 261.264 95.93C261.944 95.23 262.808 94.88 263.854 94.88C264.461 94.88 264.974 94.9733 265.394 95.16C265.821 95.3467 266.221 95.6167 266.594 95.97L265.804 96.88C265.178 96.3 264.524 96.01 263.844 96.01C263.178 96.01 262.624 96.25 262.184 96.73C261.751 97.21 261.534 97.8 261.534 98.5C261.534 99.1933 261.754 99.7833 262.194 100.27C262.634 100.75 263.184 100.99 263.844 100.99C264.244 100.99 264.598 100.917 264.904 100.77C265.211 100.617 265.528 100.387 265.854 100.08L266.644 100.88C266.251 101.293 265.834 101.603 265.394 101.81C264.954 102.017 264.424 102.12 263.804 102.12ZM270.557 102V96.14H268.337V95H274.017V96.14H271.797V102H270.557ZM276.221 102V95H277.431V100.11L280.971 95H282.121V102H280.911V96.9L277.381 102H276.221ZM286.556 102V96.14H284.336V95H290.016V96.14H287.796V102H286.556ZM293.431 102.11C292.951 102.11 292.494 101.993 292.061 101.76L292.531 100.84C292.791 100.987 293.077 101.06 293.391 101.06C293.811 101.06 294.177 100.807 294.491 100.3L291.571 95H292.951L295.131 99.07L297.051 95H298.381L295.651 100.47C295.111 101.563 294.371 102.11 293.431 102.11ZM302.165 102V96.14H299.945V95H305.625V96.14H303.405V102H302.165ZM307.829 102V95H309.039V100.11L312.579 95H313.729V102H312.519V96.9L308.989 102H307.829Z" fill="#191A21"/>
<ellipse cx="90.3221" cy="118.715" rx="2.92655" ry="2.9313" fill="#F42B39"/>
<rect x="82.7969" y="117.458" width="15.0508" height="2.51255" fill="#F42B39"/>
<rect x="91.5762" y="111.177" width="15.0753" height="2.50847" transform="rotate(90 91.5762 111.177)" fill="#F42B39"/>
<path d="M39.9 141V134H45.09V135.1H41.13V136.92H44.64V138.02H41.13V139.9H45.14V141H39.9ZM49.2192 141V135.14H46.9992V134H52.6792V135.14H50.4592V141H49.2192ZM54.8836 141V134H56.0936V139.11L59.6336 134H60.7836V141H59.5736V135.9L56.0436 141H54.8836ZM67.6084 141V138.23C66.8551 138.623 66.1918 138.82 65.6184 138.82C64.9118 138.82 64.3484 138.633 63.9284 138.26C63.5151 137.88 63.3084 137.323 63.3084 136.59V134H64.5384V136.28C64.5384 136.727 64.6484 137.073 64.8684 137.32C65.0884 137.56 65.4118 137.68 65.8384 137.68C66.4718 137.68 67.0618 137.497 67.6084 137.13V134H68.8384V141H67.6084ZM71.5371 141V134H72.7671V136.91H76.1071V134H77.3371V141H76.1071V138.05H72.7671V141H71.5371ZM80.1048 141V134H81.3348V141H80.1048ZM90.3866 133.88C91.1066 133.88 91.6966 134.057 92.1566 134.41C92.6166 134.763 92.8466 135.213 92.8466 135.76C92.8466 136.513 92.45 137.057 91.6566 137.39C92.0766 137.517 92.41 137.72 92.6566 138C92.9033 138.28 93.0266 138.637 93.0266 139.07C93.0266 139.663 92.79 140.153 92.3166 140.54C91.8433 140.927 91.2233 141.12 90.4566 141.12C89.7966 141.12 89.2266 141.027 88.7466 140.84C88.2733 140.647 87.8333 140.357 87.4266 139.97L88.0966 139.12C88.75 139.74 89.5266 140.05 90.4266 140.05C90.8133 140.05 91.1366 139.957 91.3966 139.77C91.6633 139.577 91.7966 139.32 91.7966 139C91.7966 138.653 91.65 138.397 91.3566 138.23C91.0633 138.063 90.6766 137.98 90.1966 137.98H89.4066V136.96H90.1866C90.64 136.96 90.9933 136.873 91.2466 136.7C91.5 136.52 91.6266 136.267 91.6266 135.94C91.6266 135.647 91.5033 135.41 91.2566 135.23C91.0166 135.05 90.7 134.96 90.3066 134.96C89.54 134.96 88.8866 135.22 88.3466 135.74L87.6866 134.94C88.4266 134.233 89.3266 133.88 90.3866 133.88ZM94.7715 141L97.8515 133.95H98.9915L102.071 141H100.771L100.061 139.31H96.7515L96.0315 141H94.7715ZM97.2015 138.22H99.6115L98.4015 135.42L97.2015 138.22ZM107.422 141.12C106.409 141.12 105.562 140.773 104.882 140.08C104.202 139.38 103.862 138.52 103.862 137.5C103.862 136.487 104.202 135.63 104.882 134.93C105.562 134.23 106.425 133.88 107.472 133.88C108.079 133.88 108.592 133.973 109.012 134.16C109.439 134.347 109.839 134.617 110.212 134.97L109.422 135.88C108.795 135.3 108.142 135.01 107.462 135.01C106.795 135.01 106.242 135.25 105.802 135.73C105.369 136.21 105.152 136.8 105.152 137.5C105.152 138.193 105.372 138.783 105.812 139.27C106.252 139.75 106.802 139.99 107.462 139.99C107.862 139.99 108.215 139.917 108.522 139.77C108.829 139.617 109.145 139.387 109.472 139.08L110.262 139.88C109.869 140.293 109.452 140.603 109.012 140.81C108.572 141.017 108.042 141.12 107.422 141.12ZM111.855 141L114.935 133.95H116.075L119.155 141H117.855L117.145 139.31H113.835L113.115 141H111.855ZM114.285 138.22H116.695L115.485 135.42L114.285 138.22ZM120.455 142.5V139.9H121.135C121.728 138.727 122.025 137.09 122.025 134.99V134H126.905V139.9H127.775L127.605 142.5H126.585V141H121.655L121.535 142.5H120.455ZM122.445 139.9H125.675V135.11H123.205V135.91C123.205 137.543 122.952 138.873 122.445 139.9ZM129.772 141V134H130.982V139.11L134.522 134H135.672V141H134.462V135.9L130.932 141H129.772ZM39.9 151V144H45.61V151H44.38V145.11H41.13V151H39.9ZM54.2798 150.06C53.5864 150.767 52.7098 151.12 51.6498 151.12C50.5898 151.12 49.7164 150.77 49.0298 150.07C48.3431 149.37 47.9998 148.513 47.9998 147.5C47.9998 146.5 48.3464 145.647 49.0398 144.94C49.7331 144.233 50.6098 143.88 51.6698 143.88C52.7298 143.88 53.6031 144.23 54.2898 144.93C54.9764 145.63 55.3198 146.487 55.3198 147.5C55.3198 148.5 54.9731 149.353 54.2798 150.06ZM49.9598 149.27C50.4131 149.75 50.9831 149.99 51.6698 149.99C52.3564 149.99 52.9198 149.75 53.3598 149.27C53.8064 148.79 54.0298 148.2 54.0298 147.5C54.0298 146.807 53.8031 146.22 53.3498 145.74C52.9031 145.253 52.3364 145.01 51.6498 145.01C50.9631 145.01 50.3964 145.25 49.9498 145.73C49.5098 146.21 49.2898 146.8 49.2898 147.5C49.2898 148.193 49.5131 148.783 49.9598 149.27ZM57.7059 151.08C57.4192 151.08 57.1359 151.043 56.8559 150.97L56.9759 149.96C57.0959 150 57.2292 150.02 57.3759 150.02C57.5359 150.02 57.6725 149.997 57.7859 149.95C57.9059 149.897 58.0292 149.777 58.1559 149.59C58.2892 149.403 58.3925 149.15 58.4659 148.83C58.5459 148.503 58.6125 148.05 58.6659 147.47C58.7192 146.89 58.7459 146.193 58.7459 145.38V144H63.5459V151H62.3159V145.11H59.8959V145.74C59.8959 146.827 59.8492 147.73 59.7559 148.45C59.6625 149.163 59.5159 149.71 59.3159 150.09C59.1159 150.463 58.8892 150.723 58.6359 150.87C58.3892 151.01 58.0792 151.08 57.7059 151.08ZM66.3223 151V144H67.5523V151H66.3223ZM72.0462 151V145.14H69.8262V144H75.5062V145.14H73.2862V151H72.0462ZM77.7105 151V144H78.9205V149.11L82.4605 144H83.6105V151H82.4005V145.9L78.8705 151H77.7105ZM86.3254 151V144H87.5554V147.52L90.8854 144H92.3954L89.4854 147.01L92.5254 151H91.0354L88.6454 147.85L87.5554 148.97V151H86.3254ZM94.4715 151V144H95.6815V149.11L99.2215 144H100.371V151H99.1615V145.9L95.6315 151H94.4715Z" fill="#191A21"/>
<ellipse cx="58.1297" cy="181.109" rx="2.92655" ry="2.9313" fill="#F42B39"/>
<rect x="50.6045" y="179.853" width="15.0508" height="2.51255" fill="#F42B39"/>
<rect x="59.3838" y="173.572" width="15.0753" height="2.50847" transform="rotate(90 59.3838 173.572)" fill="#F42B39"/>
<path d="M12.28 194.88C13 194.88 13.59 195.057 14.05 195.41C14.51 195.763 14.74 196.213 14.74 196.76C14.74 197.513 14.3433 198.057 13.55 198.39C13.97 198.517 14.3033 198.72 14.55 199C14.7967 199.28 14.92 199.637 14.92 200.07C14.92 200.663 14.6833 201.153 14.21 201.54C13.7367 201.927 13.1167 202.12 12.35 202.12C11.69 202.12 11.12 202.027 10.64 201.84C10.1667 201.647 9.72667 201.357 9.32 200.97L9.99 200.12C10.6433 200.74 11.42 201.05 12.32 201.05C12.7067 201.05 13.03 200.957 13.29 200.77C13.5567 200.577 13.69 200.32 13.69 200C13.69 199.653 13.5433 199.397 13.25 199.23C12.9567 199.063 12.57 198.98 12.09 198.98H11.3V197.96H12.08C12.5333 197.96 12.8867 197.873 13.14 197.7C13.3933 197.52 13.52 197.267 13.52 196.94C13.52 196.647 13.3967 196.41 13.15 196.23C12.91 196.05 12.5933 195.96 12.2 195.96C11.4333 195.96 10.78 196.22 10.24 196.74L9.58 195.94C10.32 195.233 11.22 194.88 12.28 194.88ZM16.6648 202L19.7448 194.95H20.8848L23.9648 202H22.6648L21.9548 200.31H18.6448L17.9248 202H16.6648ZM19.0948 199.22H21.5048L20.2948 196.42L19.0948 199.22ZM29.3152 202.12C28.3019 202.12 27.4552 201.773 26.7752 201.08C26.0952 200.38 25.7552 199.52 25.7552 198.5C25.7552 197.487 26.0952 196.63 26.7752 195.93C27.4552 195.23 28.3186 194.88 29.3652 194.88C29.9719 194.88 30.4852 194.973 30.9052 195.16C31.3319 195.347 31.7319 195.617 32.1052 195.97L31.3152 196.88C30.6886 196.3 30.0352 196.01 29.3552 196.01C28.6886 196.01 28.1352 196.25 27.6952 196.73C27.2619 197.21 27.0452 197.8 27.0452 198.5C27.0452 199.193 27.2652 199.783 27.7052 200.27C28.1452 200.75 28.6952 200.99 29.3552 200.99C29.7552 200.99 30.1086 200.917 30.4152 200.77C30.7219 200.617 31.0386 200.387 31.3652 200.08L32.1552 200.88C31.7619 201.293 31.3452 201.603 30.9052 201.81C30.4652 202.017 29.9352 202.12 29.3152 202.12ZM33.748 202L36.828 194.95H37.968L41.048 202H39.748L39.038 200.31H35.728L35.008 202H33.748ZM36.178 199.22H38.588L37.378 196.42L36.178 199.22ZM42.3484 203.5V200.9H43.0284C43.6218 199.727 43.9184 198.09 43.9184 195.99V195H48.7984V200.9H49.6684L49.4984 203.5H48.4784V202H43.5484L43.4284 203.5H42.3484ZM44.3384 200.9H47.5684V196.11H45.0984V196.91C45.0984 198.543 44.8451 199.873 44.3384 200.9ZM51.6656 202V195H52.8756V200.11L56.4156 195H57.5656V202H56.3556V196.9L52.8256 202H51.6656ZM9.9 212V205H15.61V212H14.38V206.11H11.13V212H9.9ZM24.2798 211.06C23.5864 211.767 22.7098 212.12 21.6498 212.12C20.5898 212.12 19.7164 211.77 19.0298 211.07C18.3431 210.37 17.9998 209.513 17.9998 208.5C17.9998 207.5 18.3464 206.647 19.0398 205.94C19.7331 205.233 20.6098 204.88 21.6698 204.88C22.7298 204.88 23.6031 205.23 24.2898 205.93C24.9764 206.63 25.3198 207.487 25.3198 208.5C25.3198 209.5 24.9731 210.353 24.2798 211.06ZM19.9598 210.27C20.4131 210.75 20.9831 210.99 21.6698 210.99C22.3564 210.99 22.9198 210.75 23.3598 210.27C23.8064 209.79 24.0298 209.2 24.0298 208.5C24.0298 207.807 23.8031 207.22 23.3498 206.74C22.9031 206.253 22.3364 206.01 21.6498 206.01C20.9631 206.01 20.3964 206.25 19.9498 206.73C19.5098 207.21 19.2898 207.8 19.2898 208.5C19.2898 209.193 19.5131 209.783 19.9598 210.27ZM27.7059 212.08C27.4192 212.08 27.1359 212.043 26.8559 211.97L26.9759 210.96C27.0959 211 27.2292 211.02 27.3759 211.02C27.5359 211.02 27.6725 210.997 27.7859 210.95C27.9059 210.897 28.0292 210.777 28.1559 210.59C28.2892 210.403 28.3925 210.15 28.4659 209.83C28.5459 209.503 28.6125 209.05 28.6659 208.47C28.7192 207.89 28.7459 207.193 28.7459 206.38V205H33.5459V212H32.3159V206.11H29.8959V206.74C29.8959 207.827 29.8492 208.73 29.7559 209.45C29.6625 210.163 29.5159 210.71 29.3159 211.09C29.1159 211.463 28.8892 211.723 28.6359 211.87C28.3892 212.01 28.0792 212.08 27.7059 212.08ZM36.3223 212V205H37.5523V212H36.3223ZM42.0462 212V206.14H39.8262V205H45.5062V206.14H43.2862V212H42.0462ZM50.7805 212.27V211.51C49.7005 211.51 48.8472 211.227 48.2205 210.66C47.5939 210.093 47.2805 209.353 47.2805 208.44C47.2805 207.533 47.5939 206.803 48.2205 206.25C48.8472 205.69 49.7005 205.41 50.7805 205.41V204.75H52.0005V205.41C53.0805 205.41 53.9339 205.69 54.5605 206.25C55.1872 206.81 55.5005 207.543 55.5005 208.45C55.5005 209.357 55.1872 210.093 54.5605 210.66C53.9405 211.227 53.0872 211.51 52.0005 211.51V212.27H50.7805ZM50.7805 210.42V206.51C50.0872 206.51 49.5405 206.683 49.1405 207.03C48.7405 207.377 48.5405 207.853 48.5405 208.46C48.5405 209.073 48.7405 209.553 49.1405 209.9C49.5405 210.247 50.0872 210.42 50.7805 210.42ZM52.0005 210.42C52.7005 210.42 53.2472 210.25 53.6405 209.91C54.0405 209.563 54.2405 209.08 54.2405 208.46C54.2405 207.853 54.0405 207.377 53.6405 207.03C53.2405 206.683 52.6939 206.51 52.0005 206.51V210.42ZM57.8505 212V205H59.0805V212H57.8505ZM61.8543 212.08C61.5676 212.08 61.2843 212.043 61.0043 211.97L61.1243 210.96C61.2443 211 61.3776 211.02 61.5243 211.02C61.6843 211.02 61.821 210.997 61.9343 210.95C62.0543 210.897 62.1776 210.777 62.3043 210.59C62.4376 210.403 62.541 210.15 62.6143 209.83C62.6943 209.503 62.761 209.05 62.8143 208.47C62.8676 207.89 62.8943 207.193 62.8943 206.38V205H67.6943V212H66.4643V206.11H64.0443V206.74C64.0443 207.827 63.9976 208.73 63.9043 209.45C63.811 210.163 63.6643 210.71 63.4643 211.09C63.2643 211.463 63.0376 211.723 62.7843 211.87C62.5376 212.01 62.2276 212.08 61.8543 212.08ZM76.3708 211.06C75.6774 211.767 74.8008 212.12 73.7408 212.12C72.6808 212.12 71.8074 211.77 71.1208 211.07C70.4341 210.37 70.0908 209.513 70.0908 208.5C70.0908 207.5 70.4374 206.647 71.1308 205.94C71.8241 205.233 72.7008 204.88 73.7608 204.88C74.8208 204.88 75.6941 205.23 76.3808 205.93C77.0674 206.63 77.4108 207.487 77.4108 208.5C77.4108 209.5 77.0641 210.353 76.3708 211.06ZM72.0508 210.27C72.5041 210.75 73.0741 210.99 73.7608 210.99C74.4474 210.99 75.0108 210.75 75.4508 210.27C75.8974 209.79 76.1208 209.2 76.1208 208.5C76.1208 207.807 75.8941 207.22 75.4408 206.74C74.9941 206.253 74.4274 206.01 73.7408 206.01C73.0541 206.01 72.4874 206.25 72.0408 206.73C71.6008 207.21 71.3808 207.8 71.3808 208.5C71.3808 209.193 71.6041 209.783 72.0508 210.27ZM83.0469 212.12C82.0335 212.12 81.1869 211.773 80.5069 211.08C79.8269 210.38 79.4869 209.52 79.4869 208.5C79.4869 207.487 79.8269 206.63 80.5069 205.93C81.1869 205.23 82.0502 204.88 83.0969 204.88C83.7035 204.88 84.2169 204.973 84.6369 205.16C85.0635 205.347 85.4635 205.617 85.8369 205.97L85.0469 206.88C84.4202 206.3 83.7669 206.01 83.0869 206.01C82.4202 206.01 81.8669 206.25 81.4269 206.73C80.9935 207.21 80.7769 207.8 80.7769 208.5C80.7769 209.193 80.9969 209.783 81.4369 210.27C81.8769 210.75 82.4269 210.99 83.0869 210.99C83.4869 210.99 83.8402 210.917 84.1469 210.77C84.4535 210.617 84.7702 210.387 85.0969 210.08L85.8869 210.88C85.4935 211.293 85.0769 211.603 84.6369 211.81C84.1969 212.017 83.6669 212.12 83.0469 212.12ZM94.0497 211.06C93.3564 211.767 92.4797 212.12 91.4197 212.12C90.3597 212.12 89.4864 211.77 88.7997 211.07C88.113 210.37 87.7697 209.513 87.7697 208.5C87.7697 207.5 88.1164 206.647 88.8097 205.94C89.503 205.233 90.3797 204.88 91.4397 204.88C92.4997 204.88 93.373 205.23 94.0597 205.93C94.7464 206.63 95.0897 207.487 95.0897 208.5C95.0897 209.5 94.743 210.353 94.0497 211.06ZM89.7297 210.27C90.183 210.75 90.753 210.99 91.4397 210.99C92.1264 210.99 92.6897 210.75 93.1297 210.27C93.5764 209.79 93.7997 209.2 93.7997 208.5C93.7997 207.807 93.573 207.22 93.1197 206.74C92.673 206.253 92.1064 206.01 91.4197 206.01C90.733 206.01 90.1664 206.25 89.7197 206.73C89.2797 207.21 89.0597 207.8 89.0597 208.5C89.0597 209.193 89.283 209.783 89.7297 210.27ZM100.546 212.27V211.51C99.4658 211.51 98.6124 211.227 97.9858 210.66C97.3591 210.093 97.0458 209.353 97.0458 208.44C97.0458 207.533 97.3591 206.803 97.9858 206.25C98.6124 205.69 99.4658 205.41 100.546 205.41V204.75H101.766V205.41C102.846 205.41 103.699 205.69 104.326 206.25C104.952 206.81 105.266 207.543 105.266 208.45C105.266 209.357 104.952 210.093 104.326 210.66C103.706 211.227 102.852 211.51 101.766 211.51V212.27H100.546ZM100.546 210.42V206.51C99.8524 206.51 99.3058 206.683 98.9058 207.03C98.5058 207.377 98.3058 207.853 98.3058 208.46C98.3058 209.073 98.5058 209.553 98.9058 209.9C99.3058 210.247 99.8524 210.42 100.546 210.42ZM101.766 210.42C102.466 210.42 103.012 210.25 103.406 209.91C103.806 209.563 104.006 209.08 104.006 208.46C104.006 207.853 103.806 207.377 103.406 207.03C103.006 206.683 102.459 206.51 101.766 206.51V210.42ZM107.616 212V205H108.846V212H107.616ZM112.69 204.42V203.24H113.92V204.42H112.69ZM110.7 204.42V203.24H111.93V204.42H110.7ZM111.69 212V205H112.92V212H111.69ZM119.661 212V205H120.891V212H119.661ZM9.9 222V215H15.61V222H14.38V216.11H11.13V222H9.9ZM24.2798 221.06C23.5864 221.767 22.7098 222.12 21.6498 222.12C20.5898 222.12 19.7164 221.77 19.0298 221.07C18.3431 220.37 17.9998 219.513 17.9998 218.5C17.9998 217.5 18.3464 216.647 19.0398 215.94C19.7331 215.233 20.6098 214.88 21.6698 214.88C22.7298 214.88 23.6031 215.23 24.2898 215.93C24.9764 216.63 25.3198 217.487 25.3198 218.5C25.3198 219.5 24.9731 220.353 24.2798 221.06ZM19.9598 220.27C20.4131 220.75 20.9831 220.99 21.6698 220.99C22.3564 220.99 22.9198 220.75 23.3598 220.27C23.8064 219.79 24.0298 219.2 24.0298 218.5C24.0298 217.807 23.8031 217.22 23.3498 216.74C22.9031 216.253 22.3364 216.01 21.6498 216.01C20.9631 216.01 20.3964 216.25 19.9498 216.73C19.5098 217.21 19.2898 217.8 19.2898 218.5C19.2898 219.193 19.5131 219.783 19.9598 220.27ZM27.7059 222.08C27.4192 222.08 27.1359 222.043 26.8559 221.97L26.9759 220.96C27.0959 221 27.2292 221.02 27.3759 221.02C27.5359 221.02 27.6725 220.997 27.7859 220.95C27.9059 220.897 28.0292 220.777 28.1559 220.59C28.2892 220.403 28.3925 220.15 28.4659 219.83C28.5459 219.503 28.6125 219.05 28.6659 218.47C28.7192 217.89 28.7459 217.193 28.7459 216.38V215H33.5459V222H32.3159V216.11H29.8959V216.74C29.8959 217.827 29.8492 218.73 29.7559 219.45C29.6625 220.163 29.5159 220.71 29.3159 221.09C29.1159 221.463 28.8892 221.723 28.6359 221.87C28.3892 222.01 28.0792 222.08 27.7059 222.08ZM36.3223 222V215H37.5523V222H36.3223ZM42.0462 222V216.14H39.8262V215H45.5062V216.14H43.2862V222H42.0462ZM47.7105 222V215H48.9205V220.11L52.4605 215H53.6105V222H52.4005V216.9L48.8705 222H47.7105ZM56.3254 222V215H57.5554V218.52L60.8854 215H62.3954L59.4854 218.01L62.5254 222H61.0354L58.6454 218.85L57.5554 219.97V222H56.3254ZM64.4715 222V215H65.6815V220.11L69.2215 215H70.3715V222H69.1615V216.9L65.6315 222H64.4715Z" fill="#191A21"/>
<ellipse cx="315.667" cy="127.508" rx="2.92655" ry="2.9313" fill="#F42B39"/>
<rect x="308.141" y="126.252" width="15.0508" height="2.51255" fill="#F42B39"/>
<rect x="316.921" y="119.97" width="15.0753" height="2.50847" transform="rotate(90 316.921 119.97)" fill="#F42B39"/>
<path d="M271.62 148V142.14H269.4V141H275.08V142.14H272.86V148H271.62ZM277.284 148V141H282.474V142.1H278.514V143.92H282.024V145.02H278.514V146.9H282.524V148H277.284ZM290.854 147.06C290.16 147.767 289.284 148.12 288.224 148.12C287.164 148.12 286.29 147.77 285.604 147.07C284.917 146.37 284.574 145.513 284.574 144.5C284.574 143.5 284.92 142.647 285.614 141.94C286.307 141.233 287.184 140.88 288.244 140.88C289.304 140.88 290.177 141.23 290.864 141.93C291.55 142.63 291.894 143.487 291.894 144.5C291.894 145.5 291.547 146.353 290.854 147.06ZM286.534 146.27C286.987 146.75 287.557 146.99 288.244 146.99C288.93 146.99 289.494 146.75 289.934 146.27C290.38 145.79 290.604 145.2 290.604 144.5C290.604 143.807 290.377 143.22 289.924 142.74C289.477 142.253 288.91 142.01 288.224 142.01C287.537 142.01 286.97 142.25 286.524 142.73C286.084 143.21 285.864 143.8 285.864 144.5C285.864 145.193 286.087 145.783 286.534 146.27ZM294.28 148V141H297.04C297.853 141 298.5 141.213 298.98 141.64C299.46 142.067 299.7 142.64 299.7 143.36C299.7 144.113 299.433 144.7 298.9 145.12C298.373 145.54 297.706 145.75 296.9 145.75H295.51V148H294.28ZM295.51 144.64H296.94C297.4 144.64 297.766 144.523 298.04 144.29C298.313 144.057 298.45 143.75 298.45 143.37C298.45 142.97 298.313 142.663 298.04 142.45C297.773 142.23 297.406 142.12 296.94 142.12H295.51V144.64ZM301.929 148V141H303.159V148H301.929ZM305.393 148L307.303 145.37C306.79 145.23 306.383 144.98 306.083 144.62C305.783 144.253 305.633 143.79 305.633 143.23C305.633 142.55 305.867 142.01 306.333 141.61C306.8 141.203 307.437 141 308.243 141H311.353V148H310.133V145.58H308.583L306.843 148H305.393ZM308.323 144.51H310.133V142.11H308.343C307.883 142.11 307.523 142.217 307.263 142.43C307.003 142.637 306.873 142.93 306.873 143.31C306.873 143.677 307.003 143.97 307.263 144.19C307.53 144.403 307.883 144.51 308.323 144.51ZM318.018 148V141H319.248V148H318.018ZM322.022 148V141H326.732V142.11H323.242V148H322.022ZM334.829 147.06C334.136 147.767 333.259 148.12 332.199 148.12C331.139 148.12 330.266 147.77 329.579 147.07C328.893 146.37 328.549 145.513 328.549 144.5C328.549 143.5 328.896 142.647 329.589 141.94C330.283 141.233 331.159 140.88 332.219 140.88C333.279 140.88 334.153 141.23 334.839 141.93C335.526 142.63 335.869 143.487 335.869 144.5C335.869 145.5 335.523 146.353 334.829 147.06ZM330.509 146.27C330.963 146.75 331.533 146.99 332.219 146.99C332.906 146.99 333.469 146.75 333.909 146.27C334.356 145.79 334.579 145.2 334.579 144.5C334.579 143.807 334.353 143.22 333.899 142.74C333.453 142.253 332.886 142.01 332.199 142.01C331.513 142.01 330.946 142.25 330.499 142.73C330.059 143.21 329.839 143.8 329.839 144.5C329.839 145.193 330.063 145.783 330.509 146.27ZM338.255 148V141H341.015C341.829 141 342.475 141.213 342.955 141.64C343.435 142.067 343.675 142.64 343.675 143.36C343.675 144.113 343.409 144.7 342.875 145.12C342.349 145.54 341.682 145.75 340.875 145.75H339.485V148H338.255ZM339.485 144.64H340.915C341.375 144.64 341.742 144.523 342.015 144.29C342.289 144.057 342.425 143.75 342.425 143.37C342.425 142.97 342.289 142.663 342.015 142.45C341.749 142.23 341.382 142.12 340.915 142.12H339.485V144.64ZM349.803 148V141H351.033V148H349.803ZM269.9 158V151H275.61V158H274.38V152.11H271.13V158H269.9ZM284.28 157.06C283.586 157.767 282.71 158.12 281.65 158.12C280.59 158.12 279.716 157.77 279.03 157.07C278.343 156.37 278 155.513 278 154.5C278 153.5 278.346 152.647 279.04 151.94C279.733 151.233 280.61 150.88 281.67 150.88C282.73 150.88 283.603 151.23 284.29 151.93C284.976 152.63 285.32 153.487 285.32 154.5C285.32 155.5 284.973 156.353 284.28 157.06ZM279.96 156.27C280.413 156.75 280.983 156.99 281.67 156.99C282.356 156.99 282.92 156.75 283.36 156.27C283.806 155.79 284.03 155.2 284.03 154.5C284.03 153.807 283.803 153.22 283.35 152.74C282.903 152.253 282.336 152.01 281.65 152.01C280.963 152.01 280.396 152.25 279.95 152.73C279.51 153.21 279.29 153.8 279.29 154.5C279.29 155.193 279.513 155.783 279.96 156.27ZM287.706 158.08C287.419 158.08 287.136 158.043 286.856 157.97L286.976 156.96C287.096 157 287.229 157.02 287.376 157.02C287.536 157.02 287.673 156.997 287.786 156.95C287.906 156.897 288.029 156.777 288.156 156.59C288.289 156.403 288.393 156.15 288.466 155.83C288.546 155.503 288.613 155.05 288.666 154.47C288.719 153.89 288.746 153.193 288.746 152.38V151H293.546V158H292.316V152.11H289.896V152.74C289.896 153.827 289.849 154.73 289.756 155.45C289.663 156.163 289.516 156.71 289.316 157.09C289.116 157.463 288.889 157.723 288.636 157.87C288.389 158.01 288.079 158.08 287.706 158.08ZM296.322 158V151H297.552V158H296.322ZM302.046 158V152.14H299.826V151H305.506V152.14H303.286V158H302.046ZM307.711 158V151H308.921V156.11L312.461 151H313.611V158H312.401V152.9L308.871 158H307.711ZM316.325 158V151H317.555V154.52L320.885 151H322.395L319.485 154.01L322.525 158H321.035L318.645 154.85L317.555 155.97V158H316.325ZM323.871 158L326.951 150.95H328.091L331.171 158H329.871L329.161 156.31H325.851L325.131 158H323.871ZM326.301 155.22H328.711L327.501 152.42L326.301 155.22Z" fill="#191A21"/>
<ellipse cx="198.605" cy="201.628" rx="2.92655" ry="2.9313" fill="#F42B39"/>
<rect x="191.079" y="200.372" width="15.0508" height="2.51255" fill="#F42B39"/>
<rect x="199.859" y="194.091" width="15.0753" height="2.50847" transform="rotate(90 199.859 194.091)" fill="#F42B39"/>
<path d="M149.9 218V211H155.61V218H154.38V212.11H151.13V218H149.9ZM164.28 217.06C163.587 217.767 162.71 218.12 161.65 218.12C160.59 218.12 159.717 217.77 159.03 217.07C158.343 216.37 158 215.513 158 214.5C158 213.5 158.347 212.647 159.04 211.94C159.733 211.233 160.61 210.88 161.67 210.88C162.73 210.88 163.603 211.23 164.29 211.93C164.977 212.63 165.32 213.487 165.32 214.5C165.32 215.5 164.973 216.353 164.28 217.06ZM159.96 216.27C160.413 216.75 160.983 216.99 161.67 216.99C162.357 216.99 162.92 216.75 163.36 216.27C163.807 215.79 164.03 215.2 164.03 214.5C164.03 213.807 163.803 213.22 163.35 212.74C162.903 212.253 162.337 212.01 161.65 212.01C160.963 212.01 160.397 212.25 159.95 212.73C159.51 213.21 159.29 213.8 159.29 214.5C159.29 215.193 159.513 215.783 159.96 216.27ZM167.706 218.08C167.419 218.08 167.136 218.043 166.856 217.97L166.976 216.96C167.096 217 167.229 217.02 167.376 217.02C167.536 217.02 167.673 216.997 167.786 216.95C167.906 216.897 168.029 216.777 168.156 216.59C168.289 216.403 168.393 216.15 168.466 215.83C168.546 215.503 168.613 215.05 168.666 214.47C168.719 213.89 168.746 213.193 168.746 212.38V211H173.546V218H172.316V212.11H169.896V212.74C169.896 213.827 169.849 214.73 169.756 215.45C169.663 216.163 169.516 216.71 169.316 217.09C169.116 217.463 168.889 217.723 168.636 217.87C168.389 218.01 168.079 218.08 167.706 218.08ZM176.323 218V211H177.553V218H176.323ZM182.046 218V212.14H179.826V211H185.506V212.14H183.286V218H182.046ZM187.711 218V211H188.921V216.11L192.461 211H193.611V218H192.401V212.9L188.871 218H187.711ZM200.436 218V215.23C199.682 215.623 199.019 215.82 198.446 215.82C197.739 215.82 197.176 215.633 196.756 215.26C196.342 214.88 196.136 214.323 196.136 213.59V211H197.366V213.28C197.366 213.727 197.476 214.073 197.696 214.32C197.916 214.56 198.239 214.68 198.666 214.68C199.299 214.68 199.889 214.497 200.436 214.13V211H201.666V218H200.436ZM204.364 218V211H205.594V213.91H208.934V211H210.164V218H208.934V215.05H205.594V218H204.364ZM212.932 218V211H214.162V218H212.932ZM220.904 218V211H222.134V218H220.904ZM224.108 219.5V216.9H224.788C225.381 215.727 225.678 214.09 225.678 211.99V211H230.558V216.9H231.428L231.258 219.5H230.238V218H225.308L225.188 219.5H224.108ZM226.098 216.9H229.328V212.11H226.858V212.91C226.858 214.543 226.604 215.873 226.098 216.9ZM233.425 218V211H238.615V212.1H234.655V213.92H238.165V215.02H234.655V216.9H238.665V218H233.425ZM246.994 217.06C246.301 217.767 245.424 218.12 244.364 218.12C243.304 218.12 242.431 217.77 241.744 217.07C241.057 216.37 240.714 215.513 240.714 214.5C240.714 213.5 241.061 212.647 241.754 211.94C242.447 211.233 243.324 210.88 244.384 210.88C245.444 210.88 246.317 211.23 247.004 211.93C247.691 212.63 248.034 213.487 248.034 214.5C248.034 215.5 247.687 216.353 246.994 217.06ZM242.674 216.27C243.127 216.75 243.697 216.99 244.384 216.99C245.071 216.99 245.634 216.75 246.074 216.27C246.521 215.79 246.744 215.2 246.744 214.5C246.744 213.807 246.517 213.22 246.064 212.74C245.617 212.253 245.051 212.01 244.364 212.01C243.677 212.01 243.111 212.25 242.664 212.73C242.224 213.21 242.004 213.8 242.004 214.5C242.004 215.193 242.227 215.783 242.674 216.27ZM250.42 218.08C250.133 218.08 249.85 218.043 249.57 217.97L249.69 216.96C249.81 217 249.943 217.02 250.09 217.02C250.25 217.02 250.387 216.997 250.5 216.95C250.62 216.897 250.743 216.777 250.87 216.59C251.003 216.403 251.107 216.15 251.18 215.83C251.26 215.503 251.327 215.05 251.38 214.47C251.433 213.89 251.46 213.193 251.46 212.38V211H256.26V218H255.03V212.11H252.61V212.74C252.61 213.827 252.563 214.73 252.47 215.45C252.377 216.163 252.23 216.71 252.03 217.09C251.83 217.463 251.603 217.723 251.35 217.87C251.103 218.01 250.793 218.08 250.42 218.08ZM264.937 217.06C264.243 217.767 263.367 218.12 262.307 218.12C261.247 218.12 260.373 217.77 259.687 217.07C259 216.37 258.657 215.513 258.657 214.5C258.657 213.5 259.003 212.647 259.697 211.94C260.39 211.233 261.267 210.88 262.327 210.88C263.387 210.88 264.26 211.23 264.947 211.93C265.633 212.63 265.977 213.487 265.977 214.5C265.977 215.5 265.63 216.353 264.937 217.06ZM260.617 216.27C261.07 216.75 261.64 216.99 262.327 216.99C263.013 216.99 263.577 216.75 264.017 216.27C264.463 215.79 264.687 215.2 264.687 214.5C264.687 213.807 264.46 213.22 264.007 212.74C263.56 212.253 262.993 212.01 262.307 212.01C261.62 212.01 261.053 212.25 260.607 212.73C260.167 213.21 259.947 213.8 259.947 214.5C259.947 215.193 260.17 215.783 260.617 216.27ZM268.363 218V211H273.073V212.11H269.583V218H268.363ZM275.27 218V211H276.5V218H275.27ZM280.344 210.42V209.24H281.574V210.42H280.344ZM278.354 210.42V209.24H279.584V210.42H278.354ZM279.344 218V211H280.574V218H279.344ZM287.316 218V211H288.546V218H287.316ZM149.9 228V221H152.66C153.474 221 154.12 221.213 154.6 221.64C155.08 222.067 155.32 222.64 155.32 223.36C155.32 224.113 155.054 224.7 154.52 225.12C153.994 225.54 153.327 225.75 152.52 225.75H151.13V228H149.9ZM151.13 224.64H152.56C153.02 224.64 153.387 224.523 153.66 224.29C153.934 224.057 154.07 223.75 154.07 223.37C154.07 222.97 153.934 222.663 153.66 222.45C153.394 222.23 153.027 222.12 152.56 222.12H151.13V224.64ZM157.48 228V221H162.67V222.1H158.71V223.92H162.22V225.02H158.71V226.9H162.72V228H157.48ZM170.219 228H168.999V226.14L167.899 224.89L165.809 228H164.329L167.089 223.98L164.469 221H165.939L168.999 224.64V221H170.219V224.64L173.279 221H174.749L172.119 223.98L174.889 228H173.409L171.319 224.89L170.219 226.14V228ZM176.839 228V221H178.049V226.11L181.589 221H182.739V228H181.529V222.9L177.999 228H176.839ZM185.453 228V221H186.763L188.893 224.31L191.023 221H192.333V228H191.103V222.98L188.893 226.28H188.853L186.663 223V228H185.453ZM195.035 228V221H196.245V226.11L199.785 221H200.935V228H199.725V222.9L196.195 228H195.035Z" fill="#191A21"/>
<path d="M56.6666 47.7347H137.356H354.112C360.125 47.7347 365 52.6093 365 58.6224C365 64.6356 360.125 69.5101 354.112 69.5101H166.43C160.417 69.5101 155.542 74.3847 155.542 80.3979V107.827C155.542 113.84 150.668 118.714 144.655 118.714H20.9385C14.9254 118.714 10.0508 123.589 10.0508 129.602V170.431C10.0508 176.444 14.9254 181.318 20.9385 181.318H65.6553H187.508C193.521 181.318 198.395 176.444 198.395 170.431V138.396C198.395 132.383 203.27 127.508 209.283 127.508H349.513C355.526 127.508 360.401 132.383 360.401 138.396V190.95C360.401 196.963 355.526 201.838 349.513 201.838H198.395" stroke="#F42B39" stroke-width="1.25627"/>
</svg>
