<svg width="1332" height="269" viewBox="0 0 1332 269" fill="none" xmlns="http://www.w3.org/2000/svg">
<path d="M168.414 30.6102C154.07 39.4514 125.323 64.9088 93.9213 95.5176C91.017 93.1335 95.498 96.8114 92.5937 94.4274C109.119 65.2203 122.834 32.515 123.782 29.0049H167.963C168.425 30.6222 167.963 28.9929 168.425 30.5982M81.7233 108.576C89.7723 122.748 150.917 204.116 184.606 239.984H130.029C109.759 211.651 58.4534 144.144 50.108 136.908L81.7233 108.576ZM43.8489 29.0169C42.9599 51.623 42.3553 89.899 42.3553 133.29C42.3553 166.75 42.6517 219.486 43.8489 239.984H0C1.19728 227.321 2.08635 184.229 2.08635 136.609C2.08635 99.5428 1.48178 59.7454 0 29.0169H43.8371H43.8489Z" fill="white"/>
<path d="M316.048 60.6881C309.255 48.5095 299.196 37.6447 283.957 30.6855C284.603 28.0344 283.718 31.656 284.376 29.0049L323.261 31.6205L317.711 60.4277C316.335 60.6289 317.424 60.4751 316.048 60.6763M245.767 242.609L199.586 239.461L206.248 200.712C207.971 200.523 206.224 200.712 207.947 200.534C214.358 216.536 227.622 233.07 246.173 240.94C245.504 243.698 246.437 239.852 245.767 242.621M231.187 67.0673C231.187 89.6965 249.247 100.112 268.193 108.751C304.901 125.132 332.291 142.103 332.291 180.805C332.291 212.95 311.288 238.502 274.233 242.491C273.133 237.378 274.963 245.888 273.863 240.775C293.969 234.455 303.406 220.773 303.406 202.535C303.406 179.018 286.553 167.396 258.876 153.998C224.572 136.718 197.792 121.25 197.792 86.1104C197.792 55.5752 219.632 32.662 258.792 29.1232C259.785 34.2006 258.122 25.7147 259.115 30.792C239.978 36.615 231.187 50.0481 231.187 67.0555" fill="white"/>
<path d="M490.53 200.306V239.984H432.63C432.149 237.192 432.806 241.038 432.325 238.247C453.455 230.22 477.812 213.268 488.993 199.731C490.225 200.198 489.298 199.851 490.53 200.318M484.335 29.0049V64.6332C483.068 65.1005 484.053 64.7291 482.786 65.1963C471.488 50.6766 449.877 36.5642 430.554 30.754C431.035 27.1959 430.307 32.5509 430.788 29.0049H484.335ZM474.585 113.452V147.499C473.741 147.93 474.046 147.774 473.201 148.205C459.063 137.747 442.744 133.542 426.905 130.08C426.952 127.564 426.893 130.858 426.94 128.343C444.527 125.312 462.208 119.286 473.283 112.697C474.022 113.128 473.858 113.032 474.585 113.464M412.603 29.0049C411.712 60.0449 411.125 95.3139 411.125 138.717C411.125 172.165 411.712 224.913 412.603 239.984H369.217C370.39 227.321 371.282 184.229 371.282 136.609C371.282 99.5308 370.683 59.7574 369.217 29.0169H412.603V29.0049Z" fill="white"/>
<path d="M648.761 260.342V136.956H732.33L741.931 186.818H703.699V260.342H648.761Z" fill="white"/>
<path d="M805.42 136.956H861.162L838.351 207.946C825.822 247.159 807.669 263.723 772.168 263.723C759.96 263.723 750.964 261.864 744.378 260.342V218.594C746.948 218.932 749.84 219.27 752.41 219.27C757.229 219.27 758.675 218.087 759.639 216.566L741.931 186.818L732.33 136.956H789.839L797.71 184.113L805.42 136.956Z" fill="white"/>
<path d="M915.283 136.956C954.8 136.956 967.132 153.351 967.132 185.635C967.132 217.918 954.8 232.623 915.283 232.623H903.878V260.342H852.313V192.226L846.654 182.107L861.162 136.956H915.283ZM852.313 192.226L911.107 190.705C915.122 190.705 916.568 189.184 916.568 185.635C916.568 182.085 915.122 180.564 911.107 180.564L846.654 182.107L852.313 192.226Z" fill="white"/>
<path d="M967.132 186.818V136.956H1163.56V186.818H1108.4V260.342H1076.58V186.818H967.132Z" fill="white"/>
<path d="M1273.98 261.263L1260 220.866L1257.75 227.12V261.263H1235.05V137.876H1257.75V177.766L1272.69 137.876H1328.76L1305.3 190.949L1331.81 261.263H1273.98Z" fill="white"/>
<path d="M1199.92 137.876C1219.55 137.877 1231.3 161.272 1231.3 195.564V203.736C1231.3 237.867 1219.55 261.262 1199.92 261.262C1180.29 261.262 1168.54 237.867 1168.54 203.736V195.564C1168.54 161.272 1180.29 137.876 1199.92 137.876Z" fill="white"/>
<path fill-rule="evenodd" clip-rule="evenodd" d="M891.548 84.6413C891.202 84.6097 890.858 84.5768 890.515 84.5439V90.5924C890.94 88.6562 891.286 86.6716 891.548 84.6413Z" fill="white"/>
<path fill-rule="evenodd" clip-rule="evenodd" d="M890.515 90.5924C890.94 88.6562 891.286 86.6716 891.548 84.6413C891.202 84.6097 890.858 84.5768 890.515 84.5439V90.5924Z" fill="white"/>
<path d="M648.761 132.039V8.65291H766.027V132.039H711.41L711.731 20.737H703.699L703.378 132.039H648.761Z" fill="white"/>
<path fill-rule="evenodd" clip-rule="evenodd" d="M766.874 74.7406C766.874 110.742 790.327 135.42 829.522 135.42C862.652 135.42 884.535 117.789 890.515 90.5924V84.5439C890.858 84.5768 891.202 84.6097 891.548 84.6413C891.961 81.4499 892.171 78.1459 892.171 74.7406V66.1205C892.171 29.9497 868.718 5.27246 829.522 5.27246C790.327 5.27246 766.874 29.9497 766.874 66.1205V74.7406ZM829.522 86.9102C825.185 86.9102 823.097 84.882 823.097 73.8955V66.7966C823.097 55.9791 825.185 53.7819 829.522 53.7819C833.86 53.7819 835.948 55.9791 835.948 66.7966V73.8955C835.948 84.882 833.86 86.9102 829.522 86.9102Z" fill="white"/>
<path d="M997.653 8.65291H908.827L907.864 64.0922C907.542 81.1635 904.33 84.8819 896.137 84.8819C894.455 84.8819 892.981 84.7723 891.548 84.6413C891.286 86.6716 890.94 88.6562 890.515 90.5924V132.039C894.531 133.391 901.759 134.744 909.952 134.744C940.634 134.744 956.216 118.179 957.661 71.1911L958.143 56.3172H965.693V132.039H997.653V8.65291Z" fill="white"/>
<path d="M1076.58 132.039H1005.39V8.65291H1076.58V132.039Z" fill="white"/>
<path d="M1086.93 58.5145V8.65291H1184.6V58.5145H1163.56V132.039H1107.98V58.5145H1086.93Z" fill="white"/>
<line x1="569.144" y1="268.998" x2="569.144" stroke="white"/>
</svg>
