<svg width="481" height="97" viewBox="0 0 481 97" fill="none" xmlns="http://www.w3.org/2000/svg">
<path d="M60.7295 11.0379C55.5572 14.226 45.1913 23.4058 33.8678 34.4433C32.8205 33.5836 34.4363 34.9098 33.389 34.0502C39.3479 23.5182 44.2936 11.7247 44.6356 10.459H60.5671C60.7338 11.0422 60.5671 10.4547 60.7338 11.0335M29.4692 39.152C32.3717 44.2625 54.4202 73.6035 66.5686 86.5374H46.8883C39.5787 76.3208 21.0781 51.9779 18.0688 49.3687L29.4692 39.152ZM15.8118 10.4633C15.4912 18.615 15.2732 32.4172 15.2732 48.064C15.2732 60.1296 15.3801 79.146 15.8118 86.5374H0C0.431736 81.9712 0.752333 66.4324 0.752333 49.2607C0.752333 35.8948 0.534327 21.5439 0 10.4633H15.8075H15.8118Z" fill="#191A21"/>
<path d="M113.966 21.8839C111.516 17.4923 107.889 13.5745 102.394 11.065C102.627 10.109 102.308 11.415 102.545 10.459L116.567 11.4022L114.566 21.79C114.07 21.8625 114.462 21.807 113.966 21.8796M88.6228 87.4841L71.9702 86.3489L74.3725 72.3761C74.9936 72.3079 74.3639 72.3761 74.985 72.3121C77.2968 78.0822 82.0799 84.0443 88.7694 86.8824C88.5279 87.8768 88.8643 86.4897 88.6228 87.4884M83.3652 24.1842C83.3652 32.3442 89.8779 36.0999 96.7097 39.2154C109.946 45.122 119.823 51.242 119.823 65.1977C119.823 76.789 112.25 86.0032 98.8878 87.4415C98.491 85.5978 99.1509 88.6663 98.7541 86.8226C106.004 84.5436 109.407 79.6101 109.407 73.0334C109.407 64.5533 103.33 60.3623 93.3499 55.5312C80.9801 49.3002 71.3232 43.7222 71.3232 31.0511C71.3232 20.0402 79.1988 11.7777 93.3197 10.5017C93.6777 12.3325 93.0782 9.27254 93.4361 11.1034C86.5353 13.2032 83.3652 18.0471 83.3652 24.1799" fill="#191A21"/>
<path d="M176.884 72.2298V86.5374H156.005C155.832 85.5309 156.069 86.9176 155.895 85.911C163.515 83.0167 172.298 76.904 176.33 72.0224C176.774 72.1909 176.44 72.0656 176.884 72.2341M174.65 10.459V23.3065C174.193 23.475 174.548 23.341 174.092 23.5095C170.017 18.2738 162.225 13.1849 155.257 11.0897C155.43 9.80667 155.168 11.7377 155.341 10.459H174.65ZM171.134 40.9102V53.1875C170.83 53.343 170.94 53.2869 170.635 53.4424C165.537 49.6711 159.652 48.1548 153.941 46.9063C153.958 45.9991 153.937 47.1871 153.954 46.2799C160.295 45.187 166.671 43.014 170.665 40.6381C170.931 40.7936 170.872 40.759 171.134 40.9146M148.784 10.459C148.462 21.6519 148.251 34.3698 148.251 50.021C148.251 62.0822 148.462 81.1029 148.784 86.5374H133.139C133.562 81.9712 133.883 66.4324 133.883 49.2607C133.883 35.8905 133.668 21.5483 133.139 10.4633H148.784V10.459Z" fill="#191A21"/>
<path d="M233.941 93.8789V49.3862H264.076L267.538 67.3661H253.752V93.8789H233.941Z" fill="#191A21"/>
<path d="M290.433 49.3862H310.533L302.307 74.9847C297.789 89.1249 291.243 95.0979 278.442 95.0979C274.04 95.0979 270.796 94.4275 268.421 93.8789V78.8245C269.348 78.9464 270.39 79.0683 271.317 79.0683C273.055 79.0683 273.576 78.6417 273.924 78.0931L267.538 67.3661L264.076 49.3862H284.814L287.652 66.3909L290.433 49.3862Z" fill="#191A21"/>
<path d="M330.049 49.3862C344.298 49.3862 348.745 55.2982 348.745 66.9395C348.745 78.5807 344.298 83.8833 330.049 83.8833H325.936V93.8789H307.342V69.3165L305.301 65.6674L310.533 49.3862H330.049ZM307.342 69.3165L328.543 68.7679C329.991 68.7679 330.512 68.2194 330.512 66.9395C330.512 65.6595 329.991 65.111 328.543 65.111L305.301 65.6674L307.342 69.3165Z" fill="#191A21"/>
<path d="M348.745 67.3661V49.3862H419.576V67.3661H399.685V93.8789H388.212V67.3661H348.745Z" fill="#191A21"/>
<path d="M459.393 94.2107L454.354 79.6439L453.543 81.899V94.2107H445.357V49.718H453.543V64.1019L458.93 49.718H479.146L470.689 68.8559L480.247 94.2107H459.393Z" fill="#191A21"/>
<path d="M432.687 49.718C439.766 49.7181 444.002 58.1544 444.002 70.5198V73.4666C444.002 85.7743 439.766 94.2105 432.687 94.2106C425.608 94.2106 421.372 85.7744 421.372 73.4666V70.5198C421.372 58.1544 425.608 49.718 432.687 49.718Z" fill="#191A21"/>
<path fill-rule="evenodd" clip-rule="evenodd" d="M321.49 30.5216C321.365 30.5102 321.241 30.4983 321.117 30.4864V32.6675C321.271 31.9693 321.395 31.2537 321.49 30.5216Z" fill="#191A21"/>
<path fill-rule="evenodd" clip-rule="evenodd" d="M321.117 32.6675C321.271 31.9693 321.395 31.2537 321.49 30.5216C321.365 30.5102 321.241 30.4983 321.117 30.4864V32.6675Z" fill="#191A21"/>
<path d="M233.941 47.6131V3.12035H276.227V47.6131H256.532L256.648 7.47783H253.752L253.636 47.6131H233.941Z" fill="#F42B39"/>
<path fill-rule="evenodd" clip-rule="evenodd" d="M276.533 26.9514C276.533 39.9335 284.99 48.8321 299.124 48.8321C311.07 48.8321 318.961 42.4747 321.117 32.6675V30.4864C321.241 30.4983 321.365 30.5102 321.49 30.5216C321.639 29.3708 321.715 28.1793 321.715 26.9514V23.843C321.715 10.7999 313.257 1.90137 299.124 1.90137C284.99 1.90137 276.533 10.7999 276.533 23.843V26.9514ZM299.124 31.3397C297.56 31.3397 296.807 30.6083 296.807 26.6467V24.0868C296.807 20.1861 297.56 19.3937 299.124 19.3937C300.688 19.3937 301.441 20.1861 301.441 24.0868V26.6467C301.441 30.6083 300.688 31.3397 299.124 31.3397Z" fill="#F42B39"/>
<path d="M359.751 3.12035H327.721L327.373 23.1116C327.257 29.2675 326.099 30.6083 323.145 30.6083C322.538 30.6083 322.007 30.5688 321.49 30.5216C321.395 31.2537 321.271 31.9693 321.117 32.6675V47.6131C322.565 48.1007 325.172 48.5883 328.126 48.5883C339.19 48.5883 344.809 42.6153 345.33 25.6715L345.504 20.308H348.226V47.6131H359.751V3.12035Z" fill="#F42B39"/>
<path d="M388.212 47.6131H362.539V3.12035H388.212V47.6131Z" fill="#F42B39"/>
<path d="M391.946 21.1003V3.12035H427.165V21.1003H419.576V47.6131H399.534V21.1003H391.946Z" fill="#F42B39"/>
<line x1="204.912" y1="97" x2="204.912" stroke="#191A21"/>
</svg>
